<svg id="visual" viewBox="0 0 960 300" width="960" height="300" xmlns="http://www.w3.org/2000/svg" xmlns:xlink="http://www.w3.org/1999/xlink" version="1.1"><rect x="0" y="0" width="960" height="300" fill="transparent"></rect><path d="M0 215L9.3 219.7C18.7 224.3 37.3 233.7 56.2 234.2C75 234.7 94 226.3 112.8 221.5C131.7 216.7 150.3 215.3 169.2 216.5C188 217.7 207 221.3 225.8 221.5C244.7 221.7 263.3 218.3 282.2 219.2C301 220 320 225 338.8 228.3C357.7 231.7 376.3 233.3 395.2 231.8C414 230.3 433 225.7 451.8 226.8C470.7 228 489.3 235 508.2 235.7C527 236.3 546 230.7 564.8 230C583.7 229.3 602.3 233.7 621.2 236.7C640 239.7 659 241.3 677.8 240.2C696.7 239 715.3 235 734.2 233.3C753 231.7 772 232.3 790.8 233.7C809.7 235 828.3 237 847.2 238.3C866 239.7 885 240.3 903.8 240.8C922.7 241.3 941.3 241.7 950.7 241.8L960 242L960 301L950.7 301C941.3 301 922.7 301 903.8 301C885 301 866 301 847.2 301C828.3 301 809.7 301 790.8 301C772 301 753 301 734.2 301C715.3 301 696.7 301 677.8 301C659 301 640 301 621.2 301C602.3 301 583.7 301 564.8 301C546 301 527 301 508.2 301C489.3 301 470.7 301 451.8 301C433 301 414 301 395.2 301C376.3 301 357.7 301 338.8 301C320 301 301 301 282.2 301C263.3 301 244.7 301 225.8 301C207 301 188 301 169.2 301C150.3 301 131.7 301 112.8 301C94 301 75 301 56.2 301C37.3 301 18.7 301 9.3 301L0 301Z" fill="#f0b428"></path><path d="M0 226L9.3 227.7C18.7 229.3 37.3 232.7 56.2 234.5C75 236.3 94 236.7 112.8 235.8C131.7 235 150.3 233 169.2 234.5C188 236 207 241 225.8 242.5C244.7 244 263.3 242 282.2 238.7C301 235.3 320 230.7 338.8 229C357.7 227.3 376.3 228.7 395.2 229.5C414 230.3 433 230.7 451.8 233.5C470.7 236.3 489.3 241.7 508.2 241C527 240.3 546 233.7 564.8 232.5C583.7 231.3 602.3 235.7 621.2 236.5C640 237.3 659 234.7 677.8 232.2C696.7 229.7 715.3 227.3 734.2 230.2C753 233 772 241 790.8 243.5C809.7 246 828.3 243 847.2 238.5C866 234 885 228 903.8 225C922.7 222 941.3 222 950.7 222L960 222L960 301L950.7 301C941.3 301 922.7 301 903.8 301C885 301 866 301 847.2 301C828.3 301 809.7 301 790.8 301C772 301 753 301 734.2 301C715.3 301 696.7 301 677.8 301C659 301 640 301 621.2 301C602.3 301 583.7 301 564.8 301C546 301 527 301 508.2 301C489.3 301 470.7 301 451.8 301C433 301 414 301 395.2 301C376.3 301 357.7 301 338.8 301C320 301 301 301 282.2 301C263.3 301 244.7 301 225.8 301C207 301 188 301 169.2 301C150.3 301 131.7 301 112.8 301C94 301 75 301 56.2 301C37.3 301 18.7 301 9.3 301L0 301Z" fill="#f1a723"></path><path d="M0 238L9.3 239C18.7 240 37.3 242 56.2 243.7C75 245.3 94 246.7 112.8 248.5C131.7 250.3 150.3 252.7 169.2 250.7C188 248.7 207 242.3 225.8 241.8C244.7 241.3 263.3 246.7 282.2 248.2C301 249.7 320 247.3 338.8 245.3C357.7 243.3 376.3 241.7 395.2 239.7C414 237.7 433 235.3 451.8 236C470.7 236.7 489.3 240.3 508.2 243.8C527 247.3 546 250.7 564.8 248.2C583.7 245.7 602.3 237.3 621.2 235.3C640 233.3 659 237.7 677.8 238.2C696.7 238.7 715.3 235.3 734.2 237.5C753 239.7 772 247.3 790.8 250.5C809.7 253.7 828.3 252.3 847.2 250.8C866 249.3 885 247.7 903.8 244.3C922.7 241 941.3 236 950.7 233.5L960 231L960 301L950.7 301C941.3 301 922.7 301 903.8 301C885 301 866 301 847.2 301C828.3 301 809.7 301 790.8 301C772 301 753 301 734.2 301C715.3 301 696.7 301 677.8 301C659 301 640 301 621.2 301C602.3 301 583.7 301 564.8 301C546 301 527 301 508.2 301C489.3 301 470.7 301 451.8 301C433 301 414 301 395.2 301C376.3 301 357.7 301 338.8 301C320 301 301 301 282.2 301C263.3 301 244.7 301 225.8 301C207 301 188 301 169.2 301C150.3 301 131.7 301 112.8 301C94 301 75 301 56.2 301C37.3 301 18.7 301 9.3 301L0 301Z" fill="#f29a20"></path><path d="M0 250L9.3 248.2C18.7 246.3 37.3 242.7 56.2 241.3C75 240 94 241 112.8 242.8C131.7 244.7 150.3 247.3 169.2 248.8C188 250.3 207 250.7 225.8 252.2C244.7 253.7 263.3 256.3 282.2 257.5C301 258.7 320 258.3 338.8 256.2C357.7 254 376.3 250 395.2 249.3C414 248.7 433 251.3 451.8 252.8C470.7 254.3 489.3 254.7 508.2 252.7C527 250.7 546 246.3 564.8 243.5C583.7 240.7 602.3 239.3 621.2 240.3C640 241.3 659 244.7 677.8 247.3C696.7 250 715.3 252 734.2 251.7C753 251.3 772 248.7 790.8 246.8C809.7 245 828.3 244 847.2 243C866 242 885 241 903.8 241.5C922.7 242 941.3 244 950.7 245L960 246L960 301L950.7 301C941.3 301 922.7 301 903.8 301C885 301 866 301 847.2 301C828.3 301 809.7 301 790.8 301C772 301 753 301 734.2 301C715.3 301 696.7 301 677.8 301C659 301 640 301 621.2 301C602.3 301 583.7 301 564.8 301C546 301 527 301 508.2 301C489.3 301 470.7 301 451.8 301C433 301 414 301 395.2 301C376.3 301 357.7 301 338.8 301C320 301 301 301 282.2 301C263.3 301 244.7 301 225.8 301C207 301 188 301 169.2 301C150.3 301 131.7 301 112.8 301C94 301 75 301 56.2 301C37.3 301 18.7 301 9.3 301L0 301Z" fill="#f28c20"></path><path d="M0 248L9.3 248.8C18.7 249.7 37.3 251.3 56.2 253.8C75 256.3 94 259.7 112.8 260.8C131.7 262 150.3 261 169.2 258C188 255 207 250 225.8 248.7C244.7 247.3 263.3 249.7 282.2 253.2C301 256.7 320 261.3 338.8 263C357.7 264.7 376.3 263.3 395.2 261.3C414 259.3 433 256.7 451.8 257C470.7 257.3 489.3 260.7 508.2 260.3C527 260 546 256 564.8 254C583.7 252 602.3 252 621.2 253.8C640 255.7 659 259.3 677.8 259.2C696.7 259 715.3 255 734.2 252.5C753 250 772 249 790.8 249.5C809.7 250 828.3 252 847.2 251.7C866 251.3 885 248.7 903.8 249.5C922.7 250.3 941.3 254.7 950.7 256.8L960 259L960 301L950.7 301C941.3 301 922.7 301 903.8 301C885 301 866 301 847.2 301C828.3 301 809.7 301 790.8 301C772 301 753 301 734.2 301C715.3 301 696.7 301 677.8 301C659 301 640 301 621.2 301C602.3 301 583.7 301 564.8 301C546 301 527 301 508.2 301C489.3 301 470.7 301 451.8 301C433 301 414 301 395.2 301C376.3 301 357.7 301 338.8 301C320 301 301 301 282.2 301C263.3 301 244.7 301 225.8 301C207 301 188 301 169.2 301C150.3 301 131.7 301 112.8 301C94 301 75 301 56.2 301C37.3 301 18.7 301 9.3 301L0 301Z" fill="#f27e22"></path><path d="M0 259L9.3 260.7C18.7 262.3 37.3 265.7 56.2 266.3C75 267 94 265 112.8 265.7C131.7 266.3 150.3 269.7 169.2 271C188 272.3 207 271.7 225.8 271.3C244.7 271 263.3 271 282.2 270.5C301 270 320 269 338.8 267C357.7 265 376.3 262 395.2 262.2C414 262.3 433 265.7 451.8 267.3C470.7 269 489.3 269 508.2 267.3C527 265.7 546 262.3 564.8 260.2C583.7 258 602.3 257 621.2 259.3C640 261.7 659 267.3 677.8 269.5C696.7 271.7 715.3 270.3 734.2 267.2C753 264 772 259 790.8 258.3C809.7 257.7 828.3 261.3 847.2 262.5C866 263.7 885 262.3 903.8 263.7C922.7 265 941.3 269 950.7 271L960 273L960 301L950.7 301C941.3 301 922.7 301 903.8 301C885 301 866 301 847.2 301C828.3 301 809.7 301 790.8 301C772 301 753 301 734.2 301C715.3 301 696.7 301 677.8 301C659 301 640 301 621.2 301C602.3 301 583.7 301 564.8 301C546 301 527 301 508.2 301C489.3 301 470.7 301 451.8 301C433 301 414 301 395.2 301C376.3 301 357.7 301 338.8 301C320 301 301 301 282.2 301C263.3 301 244.7 301 225.8 301C207 301 188 301 169.2 301C150.3 301 131.7 301 112.8 301C94 301 75 301 56.2 301C37.3 301 18.7 301 9.3 301L0 301Z" fill="#f07026"></path><path d="M0 275L9.3 275.7C18.7 276.3 37.3 277.7 56.2 276.5C75 275.3 94 271.7 112.8 268.7C131.7 265.7 150.3 263.3 169.2 264.7C188 266 207 271 225.8 271.2C244.7 271.3 263.3 266.7 282.2 265.3C301 264 320 266 338.8 267.3C357.7 268.7 376.3 269.3 395.2 270.2C414 271 433 272 451.8 271.7C470.7 271.3 489.3 269.7 508.2 267.7C527 265.7 546 263.3 564.8 264.2C583.7 265 602.3 269 621.2 270.3C640 271.7 659 270.3 677.8 269.2C696.7 268 715.3 267 734.2 266.7C753 266.3 772 266.7 790.8 267.7C809.7 268.7 828.3 270.3 847.2 271.8C866 273.3 885 274.7 903.8 273.5C922.7 272.3 941.3 268.7 950.7 266.8L960 265L960 301L950.7 301C941.3 301 922.7 301 903.8 301C885 301 866 301 847.2 301C828.3 301 809.7 301 790.8 301C772 301 753 301 734.2 301C715.3 301 696.7 301 677.8 301C659 301 640 301 621.2 301C602.3 301 583.7 301 564.8 301C546 301 527 301 508.2 301C489.3 301 470.7 301 451.8 301C433 301 414 301 395.2 301C376.3 301 357.7 301 338.8 301C320 301 301 301 282.2 301C263.3 301 244.7 301 225.8 301C207 301 188 301 169.2 301C150.3 301 131.7 301 112.8 301C94 301 75 301 56.2 301C37.3 301 18.7 301 9.3 301L0 301Z" fill="#ee612a"></path><path d="M0 282L9.3 280C18.7 278 37.3 274 56.2 272.3C75 270.7 94 271.3 112.8 271.8C131.7 272.3 150.3 272.7 169.2 274.8C188 277 207 281 225.8 280.3C244.7 279.7 263.3 274.3 282.2 271.8C301 269.3 320 269.7 338.8 271.2C357.7 272.7 376.3 275.3 395.2 276C414 276.7 433 275.3 451.8 274.8C470.7 274.3 489.3 274.7 508.2 275.8C527 277 546 279 564.8 279.8C583.7 280.7 602.3 280.3 621.2 280.2C640 280 659 280 677.8 280.2C696.7 280.3 715.3 280.7 734.2 281C753 281.3 772 281.7 790.8 279.7C809.7 277.7 828.3 273.3 847.2 271.2C866 269 885 269 903.8 270.3C922.7 271.7 941.3 274.3 950.7 275.7L960 277L960 301L950.7 301C941.3 301 922.7 301 903.8 301C885 301 866 301 847.2 301C828.3 301 809.7 301 790.8 301C772 301 753 301 734.2 301C715.3 301 696.7 301 677.8 301C659 301 640 301 621.2 301C602.3 301 583.7 301 564.8 301C546 301 527 301 508.2 301C489.3 301 470.7 301 451.8 301C433 301 414 301 395.2 301C376.3 301 357.7 301 338.8 301C320 301 301 301 282.2 301C263.3 301 244.7 301 225.8 301C207 301 188 301 169.2 301C150.3 301 131.7 301 112.8 301C94 301 75 301 56.2 301C37.3 301 18.7 301 9.3 301L0 301Z" fill="#ea512f"></path><path d="M0 284L9.3 283C18.7 282 37.3 280 56.2 280C75 280 94 282 112.8 283.3C131.7 284.7 150.3 285.3 169.2 285.7C188 286 207 286 225.8 284.5C244.7 283 263.3 280 282.2 280.7C301 281.3 320 285.7 338.8 286.3C357.7 287 376.3 284 395.2 283.5C414 283 433 285 451.8 286.3C470.7 287.7 489.3 288.3 508.2 288C527 287.7 546 286.3 564.8 284.5C583.7 282.7 602.3 280.3 621.2 280.8C640 281.3 659 284.7 677.8 286.7C696.7 288.7 715.3 289.3 734.2 289.8C753 290.3 772 290.7 790.8 290.5C809.7 290.3 828.3 289.7 847.2 287.3C866 285 885 281 903.8 279.2C922.7 277.3 941.3 277.7 950.7 277.8L960 278L960 301L950.7 301C941.3 301 922.7 301 903.8 301C885 301 866 301 847.2 301C828.3 301 809.7 301 790.8 301C772 301 753 301 734.2 301C715.3 301 696.7 301 677.8 301C659 301 640 301 621.2 301C602.3 301 583.7 301 564.8 301C546 301 527 301 508.2 301C489.3 301 470.7 301 451.8 301C433 301 414 301 395.2 301C376.3 301 357.7 301 338.8 301C320 301 301 301 282.2 301C263.3 301 244.7 301 225.8 301C207 301 188 301 169.2 301C150.3 301 131.7 301 112.8 301C94 301 75 301 56.2 301C37.3 301 18.7 301 9.3 301L0 301Z" fill="#e64034"></path><path d="M0 294L9.3 294.5C18.7 295 37.3 296 56.2 295.2C75 294.3 94 291.7 112.8 289.7C131.7 287.7 150.3 286.3 169.2 287.5C188 288.7 207 292.3 225.8 292.7C244.7 293 263.3 290 282.2 288.5C301 287 320 287 338.8 287.3C357.7 287.7 376.3 288.3 395.2 290C414 291.7 433 294.3 451.8 294.5C470.7 294.7 489.3 292.3 508.2 291C527 289.7 546 289.3 564.8 289.2C583.7 289 602.3 289 621.2 289C640 289 659 289 677.8 289.5C696.7 290 715.3 291 734.2 291C753 291 772 290 790.8 289C809.7 288 828.3 287 847.2 287.3C866 287.7 885 289.3 903.8 291C922.7 292.7 941.3 294.3 950.7 295.2L960 296L960 301L950.7 301C941.3 301 922.7 301 903.8 301C885 301 866 301 847.2 301C828.3 301 809.7 301 790.8 301C772 301 753 301 734.2 301C715.3 301 696.7 301 677.8 301C659 301 640 301 621.2 301C602.3 301 583.7 301 564.8 301C546 301 527 301 508.2 301C489.3 301 470.7 301 451.8 301C433 301 414 301 395.2 301C376.3 301 357.7 301 338.8 301C320 301 301 301 282.2 301C263.3 301 244.7 301 225.8 301C207 301 188 301 169.2 301C150.3 301 131.7 301 112.8 301C94 301 75 301 56.2 301C37.3 301 18.7 301 9.3 301L0 301Z" fill="#e12d39"></path></svg>